Motion_kv08_l
version=1
nRows=8
nColumns=43
inDegrees=yes
endheader
time	pelvis_tilt	pelvis_list	pelvis_rotation	pelvis_tx	pelvis_ty	pelvis_tz	hip_flexion_r	hip_adduction_r	hip_rotation_r	knee_angle_r	ankle_angle_r	subtalar_angle_r	mtp_angle_r	hip_flexion_l	hip_adduction_l	hip_rotation_l	knee_angle_l	ankle_angle_l	subtalar_angle_l	mtp_angle_l	lumbar_extension	lumbar_bending	lumbar_rotation	neck_flexion	neck_lateral_bending	neck_rotation	arm_flex_r	arm_add_r	arm_rot_r	elbow_flex_r	pro_sup_r	wrist_flex_r	wrist_dev_r	hand_finger_flex_r	arm_flex_l	arm_add_l	arm_rot_l	elbow_flex_l	pro_sup_l	wrist_flex_l	wrist_dev_l	hand_finger_flex_l
      0.85000000	     -0.31516286	     -7.11792115	     91.95790555	      0.02673118	      1.37967198	      0.75376044	     51.64122145	     -8.53038209	    -10.81992076	    -40.70943682	    -16.64021760	      0.46925045	      3.50416183	     52.34675264	     -5.88182534	     -0.69208812	    -41.00590292	    -10.76912022	     -6.24082560	    -10.88196484	    -52.73524412	      1.60000571	      1.01902197	      8.47212908	     -0.28774219	      3.73054505	    148.21763755	   -156.03659495	    155.62511551	     77.31710880	    117.17198605	    -23.72471218	    -22.52145375	    -21.28107809	   -220.39665771	   -150.19891669	   -200.99511865	     93.79171457	    116.98128166	    -48.93797172	     -9.25197793	     78.18754560
      0.85250000	     -0.31078314	     -6.96603884	     91.93246474	      0.02660966	      1.37384637	      0.74819247	     51.10670096	     -8.51419945	    -10.74709676	    -40.13665628	    -16.89214172	      0.54278560	      3.47270494	     51.74149260	     -5.94813743	     -0.70514432	    -40.34393770	    -11.21037413	     -6.33644647	    -10.85594643	    -52.02870832	      1.63962909	      1.02873989	      7.47323253	     -0.33125447	      3.72432065	    146.83650997	   -156.47753959	    154.98927536	     77.72082111	    117.04617478	    -23.97523371	    -22.70222724	    -21.22992960	   -221.82807087	   -150.64287668	   -201.58569550	     94.12255051	    116.74134917	    -49.09893048	     -9.35065947	     78.22172058
      0.85500000	     -0.34914584	     -6.74271979	     91.84624343	      0.02638994	      1.36852269	      0.74238492	     50.38468109	     -8.49345845	    -10.66853560	    -39.36062510	    -17.27592085	      0.58443793	      3.43312799	     50.93107123	     -6.00259087	     -0.82411605	    -39.47989588	    -12.01024205	     -6.89802178	    -10.72146013	    -51.29668146	      1.63352465	      0.99953056	      5.84751822	     -0.48208227	      3.69713077	    145.60802219	   -156.70543711	    154.55447925	     77.91010308	    116.86937772	    -23.89831065	    -22.91919761	    -20.81362901	   -223.15210743	   -150.98514361	   -201.96400338	     94.31791087	    116.11646901	    -49.05630214	     -9.53266988	     78.28916014
      0.85750000	     -0.34845599	     -6.59558930	     91.79461983	      0.02615785	      1.36265736	      0.73672669	     49.85776390	     -8.47746425	    -10.59410457	    -38.81053135	    -17.51855117	      0.66347373	      3.40591057	     50.31883178	     -6.07384374	     -0.84484300	    -38.81919617	    -12.46903286	     -7.04056352	    -10.67714438	    -50.58173424	      1.67208866	      0.98501125	      4.81484674	     -0.52871574	      3.68981614	    144.27500280	   -157.12640493	    153.91199039	     78.33533827	    116.72492008	    -24.13207560	    -23.11167875	    -20.72555116	   -224.57523440	   -151.45161022	   -202.50121865	     94.63769238	    115.83846060	    -49.17896136	     -9.64279813	     78.34076972
      0.86000000	     -0.39228695	     -6.41950473	     91.71355164	      0.02607692	      1.35718193	      0.73085087	     49.18635670	     -8.45643528	    -10.51325367	    -38.05697098	    -17.84885685	      0.74115938	      3.38157034	     49.54345224	     -6.12203670	     -0.97619700	    -37.95044787	    -13.22345159	     -7.59510356	    -10.51560433	    -49.80843633	      1.65868070	      0.95897761	      3.22178407	     -0.68291557	      3.67073276	    143.02587464	   -157.38069916	    153.50124734	     78.57169568	    116.50666374	    -24.07898490	    -23.33774514	    -20.29666246	   -225.86722721	   -151.76963641	   -202.89238746	     94.80512399	    115.20286132	    -49.09634745	     -9.83037630	     78.44908251
      0.86250000	     -0.38455892	     -6.30121738	     91.68020028	      0.02599592	      1.35117266	      0.72513663	     48.69048016	     -8.43729546	    -10.44682932	    -37.53690309	    -18.05907506	      0.82877944	      3.36086930	     48.96235274	     -6.19774286	     -1.00105069	    -37.30356304	    -13.62700342	     -7.69257781	    -10.47322349	    -49.07314501	      1.69607703	      0.95553366	      2.25894321	     -0.73364115	      3.67260736	    141.67302396	   -157.82791224	    152.89117677	     79.02128278	    116.36161219	    -24.33008829	    -23.53460915	    -20.23333365	   -227.25731621	   -152.23171092	   -203.46132037	     95.13502555	    114.96307147	    -49.22060121	     -9.93725624	     78.51154262
      0.86500000	     -0.42506442	     -6.15911987	     91.57259042	      0.02581100	      1.34555387	      0.71916532	     48.06498518	     -8.41276411	    -10.36914582	    -36.81513694	    -18.35120578	      0.92836032	      3.35388687	     48.21619524	     -6.25595698	     -1.15092236	    -36.45247243	    -14.35514461	     -8.20363491	    -10.28739302	    -48.24698481	      1.68334908	      0.92231011	      0.62248304	     -0.89275846	      3.65477220	    140.44813897	   -158.06242171	    152.47715031	     79.26649422	    116.08639994	    -24.30336538	    -23.75200030	    -19.80062435	   -228.53657163	   -152.57084604	   -203.80079375	     95.28122152	    114.34567027	    -49.07448383	    -10.13815083	     78.66725868
      0.86750000	     -0.57576741	     -6.08948545	     91.47518723	      0.02560414	      1.33940429	      0.71346540	     47.67568008	     -8.50851802	    -10.15378643	    -36.33589955	    -18.56199425	      1.06057237	      3.48501370	     47.61488189	     -6.17002921	     -1.24762918	    -35.72020480	    -15.22784962	     -8.96542690	     -9.32013100	    -47.44276473	      1.59390103	      0.81526252	     -0.46659896	     -1.01166664	      3.63013893	    139.09964167	   -158.47740771	    151.88822204	     79.72406848	    115.39244778	    -24.56428624	    -24.19827370	    -18.46836247	   -229.92025362	   -152.97352119	   -204.33569135	     95.55042457	    113.03994696	    -48.68402242	    -10.91794124	     78.88577794
